<svg width="373" height="373" viewBox="0 0 373 373" fill="none" xmlns="http://www.w3.org/2000/svg">
<path d="M59.6108 259.58C59.6108 259.58 54.5684 208.873 34.4505 198.035C14.3327 187.198 -18.1908 184.49 21.2919 155.458C60.7747 126.426 83.2341 64.4979 90.9635 47.8545C98.6929 31.2112 148.25 13.4073 191.601 27.3396C234.952 41.2718 303.076 28.5034 311.976 55.2109C320.877 81.9184 306.557 124.105 334.425 151.59C362.293 179.075 383.199 190.682 357.652 213.905C332.105 237.128 282.948 212.358 296.866 263.065C310.785 313.772 279.449 359.444 214.423 329.639C149.397 299.833 124.627 331.96 114.172 314.156C103.718 296.352 57.6767 271.965 59.6108 259.58Z" fill="#BBE8FF"/>
<path d="M75.4805 196.101C95.3616 196.101 111.478 194.887 111.478 193.39C111.478 191.893 95.3616 190.679 75.4805 190.679C55.5994 190.679 39.4825 191.893 39.4825 193.39C39.4825 194.887 55.5994 196.101 75.4805 196.101Z" fill="#85C7E0"/>
<path d="M79.9329 191.456C87.7362 191.456 94.062 190.504 94.062 189.329C94.062 188.154 87.7362 187.201 79.9329 187.201C72.1296 187.201 65.8038 188.154 65.8038 189.329C65.8038 190.504 72.1296 191.456 79.9329 191.456Z" fill="#85C7E0"/>
<path d="M262.433 93.9165H124.251V161.267H262.433V93.9165Z" fill="#3293CE"/>
<path d="M66.5773 160.877L67.3475 150.813C67.3475 150.813 67.3475 146.558 72.3796 146.171C77.4116 145.784 85.5416 146.171 85.5416 146.171C85.5416 146.171 90.1868 146.558 91.3473 150.039C92.5077 153.521 92.1209 162.428 92.1209 162.428L66.5773 160.877Z" fill="#002C47"/>
<path d="M69.2888 174.039V189.909H70.4492V174.039H69.2888Z" fill="#002C47"/>
<path d="M71.9953 172.101V187.971H73.1557V172.101H71.9953Z" fill="#002C47"/>
<path d="M89.4127 174.813V190.683H90.5732V174.813H89.4127Z" fill="#002C47"/>
<path d="M85.9312 172.492V188.362H87.0917V172.492H85.9312Z" fill="#002C47"/>
<path d="M260.496 95.8506H126.185V159.33H260.496V95.8506Z" fill="#005EA5"/>
<path d="M103.735 159.33H51.4807V178.684H103.735V159.33Z" fill="#004772"/>
<path d="M107.995 157.782H46.8398V159.717H107.995V157.782Z" fill="#005EA5"/>
<path d="M49.5461 159.72V193.78H51.4802V159.72H49.5461Z" fill="#004772"/>
<path d="M103.736 159.72V193.78H105.67V159.72H103.736Z" fill="#004772"/>
<path d="M101.411 127.203H67.3508V129.915H101.411V127.203Z" fill="#005EA5"/>
<path d="M70.8352 129.915H69.6747V132.626H70.8352V129.915Z" fill="#002C47"/>
<path d="M99.4771 129.915H98.3167V132.626H99.4771V129.915Z" fill="#002C47"/>
<path d="M120.379 110.173H86.3187V112.884H120.379V110.173Z" fill="#005EA5"/>
<path d="M89.7995 112.881H88.639V115.592H89.7995V112.881Z" fill="#002C47"/>
<path d="M118.445 112.881H117.284V115.592H118.445V112.881Z" fill="#002C47"/>
<path d="M79.7395 117.139H77.0283V127.203H79.7395V117.139Z" fill="#3293CE" stroke="black" stroke-width="0.25" stroke-miterlimit="10"/>
<path d="M85.1577 117.139H82.4465V127.203H85.1577V117.139Z" fill="#3293CE" stroke="black" stroke-width="0.25" stroke-miterlimit="10"/>
<path d="M87.8689 114.431H85.1578V124.495H87.8689V114.431Z" fill="#3293CE" stroke="black" stroke-width="0.25" stroke-miterlimit="10"/>
<path d="M95.6054 127.203V124.492H85.5413V127.203H95.6054Z" fill="#3293CE" stroke="black" stroke-width="0.25" stroke-miterlimit="10"/>
<path d="M96.383 110.173C98.9485 110.173 101.028 108.093 101.028 105.528C101.028 102.962 98.9485 100.883 96.383 100.883C93.8175 100.883 91.7377 102.962 91.7377 105.528C91.7377 108.093 93.8175 110.173 96.383 110.173Z" fill="#005EA5"/>
<path d="M96.3826 109.786C98.7344 109.786 100.641 107.88 100.641 105.528C100.641 103.176 98.7344 101.27 96.3826 101.27C94.0307 101.27 92.1241 103.176 92.1241 105.528C92.1241 107.88 94.0307 109.786 96.3826 109.786Z" fill="#0E80C6"/>
<path d="M92.1247 102.43L94.4456 100.883C94.4456 100.883 93.672 99.7223 92.1247 100.496C90.5774 101.27 92.1247 102.43 92.1247 102.43Z" fill="#0E80C6"/>
<path d="M100.727 102.43L98.4031 100.883C98.4031 100.883 99.1767 99.7223 100.727 100.496C102.278 101.27 100.727 102.43 100.727 102.43Z" fill="#0E80C6"/>
<path d="M96.3823 105.528L97.5427 103.204L98.7031 102.817L98.3163 103.981L96.3823 105.528Z" fill="black"/>
<path d="M95.2216 107.075V106.301L96.382 105.528L95.6084 107.075H95.2216Z" fill="black"/>
<path d="M293.012 113.658C297.716 113.658 301.529 109.845 301.529 105.141C301.529 100.437 297.716 96.6243 293.012 96.6243C288.308 96.6243 284.495 100.437 284.495 105.141C284.495 109.845 288.308 113.658 293.012 113.658Z" fill="#005EA5"/>
<path d="M293.012 112.881C297.287 112.881 300.752 109.416 300.752 105.141C300.752 100.867 297.287 97.4014 293.012 97.4014C288.737 97.4014 285.272 100.867 285.272 105.141C285.272 109.416 288.737 112.881 293.012 112.881Z" fill="#3293CE"/>
<path d="M293.399 98.175H293.012V105.528H293.399V98.175Z" fill="#005EA5"/>
<path d="M295.073 107.088L295.346 106.814L292.882 104.35L292.608 104.624L295.073 107.088Z" fill="#005EA5"/>
<path d="M127.348 244.484C127.348 244.484 125.797 235.967 104.899 242.937C84.0006 249.907 58.8404 250.29 49.1631 239.829C39.4859 229.367 15.8763 239.829 15.8763 239.829" stroke="#85C7E0" stroke-width="8" stroke-miterlimit="10"/>
<path d="M127.348 242.937C127.348 242.937 125.798 234.42 104.899 241.386C84.001 248.352 58.8408 248.743 49.1635 238.278C39.4862 227.813 15.8871 238.306 15.8871 238.306" stroke="#026D8E" stroke-width="8" stroke-miterlimit="10"/>
<path d="M368.679 237.079C368.679 237.079 345.733 268.004 329.998 265.659C314.263 263.314 311.524 254.976 310.398 241.6C309.272 228.224 308.761 199.969 288.943 211.981C269.126 223.993 259.242 254.227 229.405 242.719" stroke="#85C7E0" stroke-width="8" stroke-miterlimit="10"/>
<path d="M184.438 217.003C196.302 217.003 205.92 215.789 205.92 214.292C205.92 212.795 196.302 211.581 184.438 211.581C172.574 211.581 162.956 212.795 162.956 214.292C162.956 215.789 172.574 217.003 184.438 217.003Z" fill="#85C7E0"/>
<path d="M228.205 249.388C234.967 245.483 238.225 238.465 235.482 233.713C232.738 228.96 225.031 228.273 218.268 232.178C211.506 236.082 208.248 243.1 210.991 247.852C213.735 252.605 221.442 253.292 228.205 249.388Z" fill="#85C7E0"/>
<path d="M137.477 256.675C144.636 255.473 149.704 250.111 148.795 244.699C147.887 239.287 141.346 235.874 134.187 237.076C127.027 238.278 121.96 243.64 122.868 249.052C123.777 254.464 130.317 257.877 137.477 256.675Z" fill="#85C7E0"/>
<path d="M182.311 203.067H181.15V212.745H182.311V203.067Z" fill="#001E30"/>
<path d="M190.05 201.907H188.89V212.358H190.05V201.907Z" fill="#001E30"/>
<path d="M161.786 157.271C161.786 157.271 153.669 163.588 155.99 177.52L157.151 177.134C157.151 177.134 154.902 163.619 162.801 157.793L162.57 157.005L161.786 157.271Z" fill="#001E30"/>
<path d="M205.357 157.658C205.357 157.658 213.476 163.975 211.152 177.911L209.985 177.521C209.985 177.521 212.233 164.006 204.334 158.18L204.566 157.392L205.357 157.658Z" fill="#001E30"/>
<path d="M354.94 183.33H14.3221V184.877H354.94V183.33Z" fill="black"/>
<path d="M181.139 192.834C179.267 192.834 177.399 192.834 175.527 192.834C174.491 192.834 174.111 192.472 174.111 191.453C174.111 185.837 171.87 181.092 168.488 176.778C168.144 176.38 167.774 176.007 167.38 175.659C163.869 172.278 161.51 167.879 160.635 163.084C160.54 162.489 160.477 161.89 160.445 161.288C159.951 155.261 161.018 149.628 164.675 144.652C165.737 143.206 166.944 141.873 168.278 140.673C168.513 140.459 168.644 140.452 168.872 140.673C170.346 142.172 171.852 143.64 173.313 145.163C173.576 145.432 173.728 145.398 174.004 145.256C175.021 144.672 176.069 144.144 177.143 143.674C179.64 142.697 182.227 142.566 184.852 142.849C188.272 143.146 191.543 144.389 194.298 146.437C197.037 148.509 198.622 151.272 199.278 154.633C199.934 157.993 199.44 161.195 198.408 164.393C197.183 168.318 195.043 171.895 192.164 174.83C190.046 176.968 188.896 179.641 188.157 182.501C187.529 185.04 187.262 187.655 187.366 190.268C187.366 190.98 187.366 191.691 187.366 192.399C187.384 192.744 187.259 192.845 186.921 192.841C184.987 192.841 183.056 192.841 181.122 192.841L181.139 192.834Z" fill="#F6DE32"/>
<path d="M183.613 134.974C186.769 134.705 189.878 134.998 192.803 136.231C200.836 139.623 205.927 145.511 207.654 154.128C208.086 156.28 207.947 158.477 207.861 160.652C207.63 166.62 205.05 171.528 200.895 175.669C198.875 177.686 197.669 180.135 196.785 182.784C195.949 185.356 195.45 188.026 195.3 190.727C195.276 191.073 195.248 191.435 195.203 191.788C195.201 191.924 195.171 192.059 195.116 192.184C195.061 192.309 194.982 192.422 194.883 192.517C194.784 192.611 194.667 192.685 194.54 192.734C194.412 192.783 194.276 192.807 194.14 192.803C192.285 192.827 190.427 192.803 188.572 192.803C188.361 192.803 188.227 192.748 188.227 192.485C188.227 188.883 188.168 185.277 189.263 181.779C189.935 179.416 191.158 177.247 192.831 175.448C196.668 171.488 199.22 166.461 200.152 161.025C200.878 157.033 200.408 153.192 198.329 149.649C196.523 146.568 193.773 144.61 190.503 143.332C187.36 142.068 183.957 141.586 180.587 141.926C178.312 142.125 176.119 142.87 174.194 144.099C173.904 144.289 173.752 144.237 173.504 143.988C172.222 142.669 170.917 141.37 169.608 140.079C169.383 139.858 169.394 139.733 169.642 139.554C172.773 137.095 176.506 135.523 180.452 135.002C181.504 134.928 182.56 134.919 183.613 134.974Z" fill="#FEFEFE"/>
<path d="M181.358 194.133C183.226 194.133 185.095 194.133 186.966 194.133C187.284 194.133 187.388 194.215 187.384 194.544C187.384 197.357 187.384 200.17 187.384 202.981C187.398 203.065 187.394 203.151 187.371 203.234C187.349 203.316 187.309 203.393 187.254 203.458C187.199 203.524 187.131 203.577 187.054 203.614C186.977 203.651 186.893 203.67 186.808 203.672C182.936 204.421 178.864 203.375 176.381 199.317C175.584 198.042 175.11 196.592 174.999 195.093C174.941 194.329 175.086 194.16 175.87 194.157H181.34L181.358 194.133Z" fill="#F6DE32"/>
<path d="M188.282 203.078C188.231 202.935 188.218 202.782 188.244 202.632C188.244 199.942 188.244 197.255 188.244 194.564C188.244 194.133 188.358 194.088 188.765 194.102C190.061 194.153 191.359 194.136 192.658 194.143H193.169C193.967 194.143 194.139 194.337 194.07 195.114C193.938 196.804 193.355 198.428 192.384 199.817C191.412 201.207 190.087 202.311 188.544 203.016C188.468 203.043 188.392 203.112 188.282 203.078Z" fill="#FEFEFE"/>
<path d="M156.764 181.392C157.618 181.392 158.311 180.266 158.311 178.878C158.311 177.489 157.618 176.364 156.764 176.364C155.909 176.364 155.217 177.489 155.217 178.878C155.217 180.266 155.909 181.392 156.764 181.392Z" fill="#001E30"/>
<path d="M210.179 180.618C211.033 180.618 211.726 179.493 211.726 178.104C211.726 176.716 211.033 175.59 210.179 175.59C209.324 175.59 208.631 176.716 208.631 178.104C208.631 179.493 209.324 180.618 210.179 180.618Z" fill="#001E30"/>
<path d="M183.084 211.971V213.518C182.876 213.729 182.604 213.864 182.31 213.905C181.924 213.905 176.892 215.069 176.892 215.069C176.892 215.069 174.958 213.518 176.892 212.358C178.211 211.619 179.654 211.127 181.15 210.907L182.31 210.71C182.31 210.71 183.084 210.811 183.084 211.971Z" fill="#F6DE32"/>
<path d="M188.503 212.748V214.295C188.711 214.506 188.983 214.642 189.276 214.682C189.663 214.682 194.695 215.846 194.695 215.846C194.695 215.846 196.633 214.295 194.695 213.135C193.376 212.396 191.933 211.904 190.437 211.684L189.276 211.488C189.276 211.488 188.503 211.588 188.503 212.748Z" fill="#F6DE32"/>
<path d="M174.765 165.139C176.369 165.139 177.669 163.752 177.669 162.041C177.669 160.33 176.369 158.943 174.765 158.943C173.161 158.943 171.86 160.33 171.86 162.041C171.86 163.752 173.161 165.139 174.765 165.139Z" fill="#001E30"/>
<path d="M194.115 165.139C195.719 165.139 197.02 163.752 197.02 162.041C197.02 160.33 195.719 158.943 194.115 158.943C192.511 158.943 191.21 160.33 191.21 162.041C191.21 163.752 192.511 165.139 194.115 165.139Z" fill="#001E30"/>
<path d="M174.18 163.585C175.249 163.585 176.114 162.719 176.114 161.651C176.114 160.582 175.249 159.717 174.18 159.717C173.112 159.717 172.246 160.582 172.246 161.651C172.246 162.719 173.112 163.585 174.18 163.585Z" fill="#FFF8D7"/>
<path d="M176.505 163.975C176.719 163.975 176.892 163.802 176.892 163.588C176.892 163.374 176.719 163.201 176.505 163.201C176.292 163.201 176.118 163.374 176.118 163.588C176.118 163.802 176.292 163.975 176.505 163.975Z" fill="#FFF8D7"/>
<path d="M195.469 163.975C195.683 163.975 195.856 163.802 195.856 163.588C195.856 163.374 195.683 163.201 195.469 163.201C195.256 163.201 195.083 163.374 195.083 163.588C195.083 163.802 195.256 163.975 195.469 163.975Z" fill="#FFF8D7"/>
<path d="M193.536 163.585C194.604 163.585 195.47 162.719 195.47 161.651C195.47 160.582 194.604 159.717 193.536 159.717C192.467 159.717 191.601 160.582 191.601 161.651C191.601 162.719 192.467 163.585 193.536 163.585Z" fill="#FFF8D7"/>
<path d="M176.892 177.52C177.911 176.383 179.122 175.433 180.47 174.716C181.83 173.96 183.341 173.514 184.894 173.41C185.676 173.372 186.46 173.438 187.225 173.607C187.983 173.794 188.714 174.076 189.401 174.447C190.73 175.216 191.877 176.265 192.762 177.52C191.701 176.475 190.485 175.6 189.156 174.927C188.493 174.62 187.798 174.389 187.084 174.236C186.373 174.098 185.648 174.049 184.925 174.091C183.462 174.185 182.029 174.556 180.705 175.186C179.348 175.814 178.068 176.598 176.892 177.52Z" fill="black"/>
<path d="M208.849 237.301L208.593 238.433L215.01 239.883L215.266 238.751L208.849 237.301Z" fill="#002F3A"/>
<path d="M210.585 231.655L210.33 232.787L216.747 234.237L217.003 233.105L210.585 231.655Z" fill="#002F3A"/>
<path d="M226.487 238.963C228.655 232.562 227.483 226.381 223.87 225.157C220.256 223.934 215.57 228.131 213.402 234.531C211.234 240.932 212.406 247.113 216.019 248.337C219.632 249.561 224.319 245.364 226.487 238.963Z" fill="#026D8E"/>
<path d="M227.648 239.352C229.815 232.951 228.644 226.77 225.03 225.547C221.417 224.323 216.731 228.52 214.563 234.921C212.395 241.322 213.567 247.503 217.18 248.726C220.793 249.95 225.48 245.753 227.648 239.352Z" fill="#0687BA"/>
<path d="M230.709 240.246C232.197 235.853 230.474 231.299 226.861 230.075C223.248 228.851 219.112 231.421 217.624 235.815C216.136 240.208 217.859 244.762 221.472 245.986C225.085 247.21 229.221 244.64 230.709 240.246Z" fill="#026D8E"/>
<path d="M231.512 240.573C233 236.18 231.277 231.626 227.664 230.402C224.05 229.178 219.915 231.748 218.427 236.142C216.939 240.536 218.662 245.089 222.275 246.313C225.888 247.537 230.024 244.967 231.512 240.573Z" fill="#0687BA"/>
<path d="M133.154 250.29C137.857 250.29 141.67 246.998 141.67 242.937C141.67 238.876 137.857 235.584 133.154 235.584C128.45 235.584 124.637 238.876 124.637 242.937C124.637 246.998 128.45 250.29 133.154 250.29Z" fill="#0687BA"/>
<path d="M368.679 234.372C368.679 234.372 345.733 265.293 329.998 262.948C314.263 260.603 311.524 252.265 310.398 238.889C309.272 225.513 308.761 197.258 288.943 209.274C269.126 221.289 259.242 251.516 229.405 240.012" stroke="#026D8E" stroke-width="8" stroke-miterlimit="10"/>
<path d="M137.216 254.548C140.529 254.548 143.215 249.523 143.215 243.324C143.215 237.125 140.529 232.099 137.216 232.099C133.903 232.099 131.217 237.125 131.217 243.324C131.217 249.523 133.903 254.548 137.216 254.548Z" fill="#026D8E"/>
<path d="M138.574 254.548C141.566 254.548 143.992 249.523 143.992 243.324C143.992 237.125 141.566 232.099 138.574 232.099C135.581 232.099 133.155 237.125 133.155 243.324C133.155 249.523 135.581 254.548 138.574 254.548Z" fill="#0687BA"/>
<path d="M137.412 244.484C137.839 244.484 138.186 243.791 138.186 242.937C138.186 242.082 137.839 241.39 137.412 241.39C136.985 241.39 136.638 242.082 136.638 242.937C136.638 243.791 136.985 244.484 137.412 244.484Z" fill="#026D8E"/>
<path d="M142.054 243.711C142.481 243.711 142.828 243.018 142.828 242.163C142.828 241.309 142.481 240.616 142.054 240.616C141.627 240.616 141.28 241.309 141.28 242.163C141.28 243.018 141.627 243.711 142.054 243.711Z" fill="#026D8E"/>
</svg>
